<svg width="26" height="28" viewBox="0 0 26 28" fill="none" xmlns="http://www.w3.org/2000/svg">
<g id="bell.fill" clip-path="url(#clip0_729_1034)">
<path id="Vector" d="M2.84395 22.1947H22.7794C23.9611 22.1947 24.6791 21.5904 24.6791 20.6727C24.6791 19.4148 23.3955 18.2825 22.3136 17.163C21.4839 16.2958 21.2575 14.5098 21.1566 13.063C21.0686 8.23319 19.786 4.91241 16.4394 3.70495C15.9629 2.05743 14.6674 0.761963 12.8063 0.761963C10.9559 0.761963 9.64759 2.05743 9.18285 3.70495C5.83738 4.91241 4.55372 8.23319 4.46463 13.063C4.36374 14.5098 4.13835 16.2958 3.30762 17.163C2.21393 18.2825 0.944214 19.4159 0.944214 20.6727C0.944214 21.5904 1.6483 22.1947 2.84395 22.1947ZM12.8042 27.2381C14.9432 27.2381 16.5027 25.6786 16.6659 23.9173H8.95639C9.11953 25.6775 10.678 27.2381 12.8042 27.2381Z" fill="#C7C7C7"/>
</g>
<defs>
<clipPath id="clip0_729_1034">
<rect width="24.1117" height="26.4761" fill="white" transform="translate(0.944214 0.761963)"/>
</clipPath>
</defs>
</svg>
