<svg width="32" height="30" viewBox="0 0 32 30" fill="none" xmlns="http://www.w3.org/2000/svg">
<path id="Vector" d="M30.3547 7.28533C30.37 7.08572 30.3444 6.89016 30.2796 6.71113C30.2147 6.5321 30.1119 6.37353 29.9779 6.24552C29.8438 6.11751 29.6814 6.02288 29.5009 5.96765C29.3205 5.91242 29.126 5.89781 28.9298 5.92475C28.7337 5.95168 28.5401 6.01958 28.3616 6.12411C28.1831 6.22864 28.0234 6.36751 27.8929 6.53185C27.7623 6.6962 27.6637 6.88243 27.6033 7.07866C27.5429 7.27489 27.5221 7.47682 27.5421 7.67158L27.7072 22.1645L3.70522 1.48504C3.4327 1.27738 3.07882 1.19477 2.7165 1.25424C2.35418 1.31371 2.01103 1.51073 1.75776 1.80469C1.50449 2.09866 1.36039 2.46717 1.35516 2.8343C1.34993 3.20143 1.48397 3.5392 1.72965 3.77801L25.7316 24.4575L11.3706 26.4183C11.0004 26.4778 10.6495 26.6785 10.3908 26.9788C10.132 27.2791 9.98539 27.6559 9.98132 28.0308C9.98327 28.2173 10.0217 28.397 10.0943 28.5597C10.1669 28.7223 10.2724 28.8647 10.4046 28.9786C10.5368 29.0925 10.6932 29.1758 10.8648 29.2236C11.0364 29.2713 11.2198 29.2827 11.4046 29.257L29.1799 26.816C29.3656 26.7941 29.5496 26.7345 29.721 26.6407C29.8924 26.547 30.0476 26.4211 30.1773 26.2706C30.307 26.12 30.4086 25.9479 30.4759 25.7646C30.5433 25.5812 30.575 25.3904 30.5692 25.2035L30.3547 7.28533Z" fill="black" stroke="black"/>
</svg>
