<svg width="25" height="24" viewBox="0 0 25 24" fill="none" xmlns="http://www.w3.org/2000/svg">
<g id="Social Icons" clip-path="url(#clip0_287_1322)">
<path id="Vector" d="M12.3301 0C5.70272 0 0.330078 5.37264 0.330078 12C0.330078 17.6275 4.20464 22.3498 9.43136 23.6467V15.6672H6.95696V12H9.43136V10.4198C9.43136 6.33552 11.2798 4.4424 15.2898 4.4424C16.0501 4.4424 17.3619 4.59168 17.8986 4.74048V8.06448C17.6154 8.03472 17.1234 8.01984 16.5123 8.01984C14.5448 8.01984 13.7845 8.76528 13.7845 10.703V12H17.7042L17.0307 15.6672H13.7845V23.9122C19.7264 23.1946 24.3306 18.1354 24.3306 12C24.3301 5.37264 18.9574 0 12.3301 0Z" fill="#C4C4C4"/>
</g>
<defs>
<clipPath id="clip0_287_1322">
<rect width="24" height="24" fill="white" transform="translate(0.330078)"/>
</clipPath>
</defs>
</svg>
