<svg width="150" height="67" viewBox="0 0 150 67" fill="none" xmlns="http://www.w3.org/2000/svg">
<g id="Group 9">
<path id="Vector" d="M88.7074 0H69.9374L96.0664 33.059L69.8984 66.141H88.6754L114.847 33.059L88.7074 0Z" fill="url(#paint0_linear_195_1176)" fill-opacity="0.5"/>
<path id="Vector_2" d="M53.809 0H35.039L61.168 33.059L35 66.141H53.777L79.949 33.059L53.809 0Z" fill="url(#paint1_linear_195_1176)" fill-opacity="0.4"/>
<path id="Vector_3" d="M18.809 0H0.0390015L26.168 33.059L0 66.141H18.777L44.949 33.059L18.809 0Z" fill="url(#paint2_linear_195_1176)" fill-opacity="0.2"/>
<path id="Vector_4" d="M123.782 66.141L149.95 33.059L123.809 0H105L131.141 33.059L105 66.141H123.782Z" fill="url(#paint3_linear_195_1176)"/>
</g>
<defs>
<linearGradient id="paint0_linear_195_1176" x1="92.3729" y1="0" x2="92.3729" y2="66.141" gradientUnits="userSpaceOnUse">
<stop stop-color="#D7FD44"/>
<stop offset="1" stop-color="#737373"/>
</linearGradient>
<linearGradient id="paint1_linear_195_1176" x1="57.4745" y1="0" x2="57.4745" y2="66.141" gradientUnits="userSpaceOnUse">
<stop stop-color="#D7FD44"/>
<stop offset="1" stop-color="#737373"/>
</linearGradient>
<linearGradient id="paint2_linear_195_1176" x1="22.4745" y1="0" x2="22.4745" y2="66.141" gradientUnits="userSpaceOnUse">
<stop stop-color="#D7FD44"/>
<stop offset="1" stop-color="#737373"/>
</linearGradient>
<linearGradient id="paint3_linear_195_1176" x1="127.475" y1="0" x2="127.475" y2="66.141" gradientUnits="userSpaceOnUse">
<stop stop-color="#D7FD44"/>
<stop offset="1" stop-color="#737373"/>
</linearGradient>
</defs>
</svg>
