<svg width="25" height="24" viewBox="0 0 25 24" fill="none" xmlns="http://www.w3.org/2000/svg">
<g id="Social Icons" clip-path="url(#clip0_287_1324)">
<path id="Vector" d="M12.3301 2.16094C15.5363 2.16094 15.916 2.175 17.177 2.23125C18.3488 2.28281 18.9816 2.47969 19.4035 2.64375C19.9613 2.85938 20.3645 3.12188 20.7816 3.53906C21.2035 3.96094 21.4613 4.35938 21.677 4.91719C21.841 5.33906 22.0379 5.97656 22.0895 7.14375C22.1457 8.40937 22.1598 8.78906 22.1598 11.9906C22.1598 15.1969 22.1457 15.5766 22.0895 16.8375C22.0379 18.0094 21.841 18.6422 21.677 19.0641C21.4613 19.6219 21.1988 20.025 20.7816 20.4422C20.3598 20.8641 19.9613 21.1219 19.4035 21.3375C18.9816 21.5016 18.3441 21.6984 17.177 21.75C15.9113 21.8062 15.5316 21.8203 12.3301 21.8203C9.12383 21.8203 8.74414 21.8062 7.4832 21.75C6.31133 21.6984 5.67852 21.5016 5.25664 21.3375C4.69883 21.1219 4.2957 20.8594 3.87852 20.4422C3.45664 20.0203 3.19883 19.6219 2.9832 19.0641C2.81914 18.6422 2.62227 18.0047 2.5707 16.8375C2.51445 15.5719 2.50039 15.1922 2.50039 11.9906C2.50039 8.78438 2.51445 8.40469 2.5707 7.14375C2.62227 5.97187 2.81914 5.33906 2.9832 4.91719C3.19883 4.35938 3.46133 3.95625 3.87852 3.53906C4.30039 3.11719 4.69883 2.85938 5.25664 2.64375C5.67852 2.47969 6.31602 2.28281 7.4832 2.23125C8.74414 2.175 9.12383 2.16094 12.3301 2.16094ZM12.3301 0C9.07227 0 8.66445 0.0140625 7.38477 0.0703125C6.10977 0.126563 5.2332 0.332812 4.47383 0.628125C3.68164 0.9375 3.01133 1.34531 2.3457 2.01562C1.67539 2.68125 1.26758 3.35156 0.958203 4.13906C0.662891 4.90313 0.456641 5.775 0.400391 7.05C0.344141 8.33437 0.330078 8.74219 0.330078 12C0.330078 15.2578 0.344141 15.6656 0.400391 16.9453C0.456641 18.2203 0.662891 19.0969 0.958203 19.8563C1.26758 20.6484 1.67539 21.3188 2.3457 21.9844C3.01133 22.65 3.68164 23.0625 4.46914 23.3672C5.2332 23.6625 6.10508 23.8687 7.38008 23.925C8.65977 23.9812 9.06758 23.9953 12.3254 23.9953C15.5832 23.9953 15.991 23.9812 17.2707 23.925C18.5457 23.8687 19.4223 23.6625 20.1816 23.3672C20.9691 23.0625 21.6395 22.65 22.3051 21.9844C22.9707 21.3188 23.3832 20.6484 23.6879 19.8609C23.9832 19.0969 24.1895 18.225 24.2457 16.95C24.302 15.6703 24.316 15.2625 24.316 12.0047C24.316 8.74688 24.302 8.33906 24.2457 7.05938C24.1895 5.78438 23.9832 4.90781 23.6879 4.14844C23.3926 3.35156 22.9848 2.68125 22.3145 2.01562C21.6488 1.35 20.9785 0.9375 20.191 0.632812C19.427 0.3375 18.5551 0.13125 17.2801 0.075C15.9957 0.0140625 15.5879 0 12.3301 0Z" fill="#C4C4C4"/>
<path id="Vector_2" d="M12.3301 5.83594C8.92695 5.83594 6.16602 8.59688 6.16602 12C6.16602 15.4031 8.92695 18.1641 12.3301 18.1641C15.7332 18.1641 18.4941 15.4031 18.4941 12C18.4941 8.59688 15.7332 5.83594 12.3301 5.83594ZM12.3301 15.9984C10.1223 15.9984 8.33164 14.2078 8.33164 12C8.33164 9.79219 10.1223 8.00156 12.3301 8.00156C14.5379 8.00156 16.3285 9.79219 16.3285 12C16.3285 14.2078 14.5379 15.9984 12.3301 15.9984Z" fill="#C4C4C4"/>
<path id="Vector_3" d="M20.177 5.59238C20.177 6.38926 19.5301 7.03145 18.7379 7.03145C17.941 7.03145 17.2988 6.38457 17.2988 5.59238C17.2988 4.79551 17.9457 4.15332 18.7379 4.15332C19.5301 4.15332 20.177 4.8002 20.177 5.59238Z" fill="#C4C4C4"/>
</g>
<defs>
<clipPath id="clip0_287_1324">
<rect width="24" height="24" fill="white" transform="translate(0.330078)"/>
</clipPath>
</defs>
</svg>
