<svg width="56" height="56" viewBox="0 0 56 56" fill="none" xmlns="http://www.w3.org/2000/svg">
<g id="Frame">
<path id="Vector" d="M35.4232 33.6361L40.8353 39.0482L39.0482 40.8353L33.6361 35.4232C31.6901 36.9801 29.2221 37.9115 26.538 37.9115C20.2599 37.9115 15.1646 32.8162 15.1646 26.538C15.1646 20.2599 20.2599 15.1646 26.538 15.1646C32.8162 15.1646 37.9115 20.2599 37.9115 26.538C37.9115 29.2221 36.9801 31.6901 35.4232 33.6361ZM32.8878 32.6984C34.4331 31.1058 35.384 28.9335 35.384 26.538C35.384 21.6506 31.4254 17.692 26.538 17.692C21.6506 17.692 17.692 21.6506 17.692 26.538C17.692 31.4254 21.6506 35.384 26.538 35.384C28.9335 35.384 31.1058 34.4331 32.6984 32.8878L32.8878 32.6984Z" fill="#C7C7C7"/>
</g>
</svg>
