<svg width="35" height="36" viewBox="0 0 35 36" fill="none" xmlns="http://www.w3.org/2000/svg">
<path d="M15.7121 1.31155C16.4499 -0.159925 18.5501 -0.159922 19.2879 1.31156L20.5349 3.79888C21.0346 4.79538 22.2524 5.19108 23.2424 4.67857L25.7133 3.39929C27.175 2.64249 28.8742 3.87697 28.6061 5.50107L28.153 8.24637C27.9715 9.34622 28.7242 10.3822 29.8263 10.5494L32.5772 10.9668C34.2047 11.2138 34.8537 13.2112 33.6822 14.3676L31.702 16.3222C30.9086 17.1053 30.9086 18.3859 31.702 19.169L33.6822 21.1236C34.8537 22.28 34.2047 24.2774 32.5772 24.5244L29.8263 24.9418C28.7242 25.109 27.9715 26.145 28.153 27.2448L28.6061 29.9902C28.8742 31.6142 27.175 32.8487 25.7133 32.0919L23.2424 30.8126C22.2524 30.3001 21.0346 30.6958 20.5349 31.6923L19.2879 34.1797C18.5501 35.6511 16.4499 35.6511 15.7121 34.1797L14.4651 31.6923C13.9654 30.6958 12.7476 30.3001 11.7576 30.8126L9.28672 32.0919C7.82495 32.8487 6.12584 31.6142 6.39389 29.9901L6.847 27.2448C7.02852 26.145 6.27584 25.109 5.17373 24.9418L2.42277 24.5244C0.79533 24.2774 0.146329 22.28 1.31781 21.1236L3.29803 19.169C4.09136 18.3859 4.09136 17.1053 3.29803 16.3222L1.31781 14.3676C0.146327 13.2112 0.795333 11.2138 2.42277 10.9668L5.17373 10.5494C6.27584 10.3822 7.02852 9.34621 6.847 8.24637L6.39389 5.50106C6.12584 3.87697 7.82495 2.64249 9.28673 3.3993L11.7576 4.67857C12.7476 5.19108 13.9654 4.79537 14.4651 3.79888L15.7121 1.31155Z" fill="#D7FD44"/>
</svg>
