<svg width="77" height="77" viewBox="0 0 77 77" fill="none" xmlns="http://www.w3.org/2000/svg">
<path d="M37.5642 1.22941C37.8894 0.366161 39.1106 0.366159 39.4358 1.22941L44.2718 14.0652C44.5131 14.7059 45.3123 14.92 45.8417 14.4859L56.4477 5.78773C57.161 5.20275 58.2185 5.8133 58.0685 6.72352L55.8387 20.2577C55.7274 20.9331 56.3125 21.5182 56.9879 21.4069L70.5221 19.1771C71.4323 19.0271 72.0429 20.0846 71.4579 20.7979L62.7597 31.4039C62.3256 31.9333 62.5397 32.7325 63.1804 32.9738L76.0162 37.8098C76.8794 38.1351 76.8794 39.3562 76.0162 39.6814L63.1804 44.5174C62.5397 44.7587 62.3256 45.558 62.7597 46.0873L71.4579 56.6933C72.0429 57.4066 71.4323 58.4641 70.5221 58.3141L56.9879 56.0843C56.3125 55.973 55.7274 56.5581 55.8387 57.2336L58.0685 70.7677C58.2185 71.6779 57.161 72.2885 56.4477 71.7035L45.8417 63.0053C45.3123 62.5712 44.5131 62.7853 44.2718 63.426L39.4358 76.2618C39.1106 77.1251 37.8894 77.1251 37.5642 76.2618L32.7282 63.426C32.4869 62.7853 31.6877 62.5712 31.1583 63.0053L20.5523 71.7035C19.839 72.2885 18.7815 71.6779 18.9315 70.7677L21.1613 57.2335C21.2726 56.5581 20.6875 55.973 20.0121 56.0843L6.47791 58.3141C5.5677 58.4641 4.95715 57.4066 5.54212 56.6933L14.2403 46.0873C14.6744 45.558 14.4603 44.7587 13.8196 44.5174L0.983804 39.6814C0.120555 39.3562 0.120553 38.1351 0.983801 37.8098L13.8196 32.9738C14.4603 32.7325 14.6744 31.9333 14.2403 31.4039L5.54212 20.7979C4.95715 20.0846 5.5677 19.0271 6.47791 19.1771L20.0121 21.4069C20.6875 21.5182 21.2726 20.9331 21.1613 20.2577L18.9315 6.72352C18.7815 5.81331 19.839 5.20275 20.5523 5.78773L31.1583 14.4859C31.6877 14.92 32.4869 14.7059 32.7282 14.0652L37.5642 1.22941Z" fill="#D7FD44"/>
</svg>
