<svg width="54" height="52" viewBox="0 0 54 52" fill="none" xmlns="http://www.w3.org/2000/svg">
<g id="Vector">
<path d="M52.2424 38.9324L52.2153 38.8637C52.1466 38.5242 51.8695 37.5076 50.728 33.4456C50.3218 31.9978 49.9093 30.5271 49.6031 29.423C49.0219 27.3149 46.5638 23.678 44.3932 20.4698C43.4058 19.0095 42.4725 17.6263 41.8497 16.5827H41.8476C42.8767 12.908 42.1372 8.96261 39.8478 5.91065C37.5584 2.85676 33.9775 1.04238 30.1613 1.00073C26.3451 0.95907 22.7269 2.69433 20.3708 5.69611C18.0148 8.69789 17.1899 12.6266 18.1377 16.3223C19.0855 20.0198 21.6978 23.0656 25.2079 24.5652C28.718 26.0629 32.7261 25.8421 36.0506 23.9694L36.4026 24.7318L35.9173 33.5662C33.1092 29.7061 28.9889 28.8499 23.6332 31.0227C20.1418 28.3896 15.7321 27.2814 11.4093 27.9563C10.1115 28.1688 8.795 28.2709 7.47844 28.2584C5.79317 28.2188 4.16629 28.8708 2.97472 30.0644C1.79569 31.2289 1.14365 32.8246 1.16866 34.4806L1.23116 39.5801C1.26449 43.1652 2.97056 46.5314 5.84526 48.6752C5.85151 48.6794 5.85568 48.6856 5.86193 48.6898C5.86818 48.694 5.87234 48.694 5.87651 48.6981C7.85967 50.1897 10.2761 50.9958 12.7569 50.9917L16.0108 51H16.0087C16.2982 51 16.5649 50.8521 16.7169 50.6063L18.4147 47.8836C18.773 47.3087 19.4812 47.0608 20.1207 47.2858C32.6651 51.6166 41.4792 48.8293 47.3095 46.9837C47.6532 46.8775 47.9886 46.7712 48.3136 46.6671C50.3592 46.0296 51.7299 44.9985 52.3902 43.5986C53.3318 41.6113 52.5111 39.5949 52.2424 38.9324ZM19.4542 13.2934C19.4542 10.4853 20.5708 7.79207 22.556 5.80453C24.5433 3.81929 27.2367 2.70484 30.0448 2.70484C32.855 2.70484 35.5483 3.82142 37.5337 5.80869C39.5189 7.79393 40.6355 10.4874 40.6334 13.2975C40.6334 16.1056 39.5189 18.7989 37.5316 20.7843C35.5464 22.7695 32.8529 23.886 30.0449 23.886C27.2348 23.884 24.5436 22.7653 22.5582 20.7801C20.5729 18.7928 19.4563 16.1014 19.4542 13.2934ZM50.8847 42.8905C50.4306 43.8508 49.3994 44.5861 47.8183 45.0778C47.4913 45.1798 47.1538 45.2861 46.806 45.3986C41.1836 47.1775 32.6863 49.8627 20.6629 45.7131V45.711C19.2881 45.2298 17.7653 45.7673 16.9987 47.0047L15.5488 49.3357L12.7595 49.3274C10.9118 49.3294 9.09944 48.8066 7.53709 47.8213C8.48911 46.6339 10.1889 44.8007 11.5679 44.405C14.1573 43.6655 16.6612 39.3617 16.9381 38.8743V38.8722C17.1651 38.4723 17.0256 37.964 16.6256 37.7369C16.2236 37.5099 15.7153 37.6494 15.4882 38.0494C14.5695 39.6659 12.5697 42.3844 11.1095 42.801C9.14721 43.3614 7.15156 45.6195 6.20376 46.8152C4.12274 44.9758 2.92078 42.3386 2.89577 39.5599L2.83328 34.4604C2.81453 33.2543 3.28948 32.094 4.14771 31.2462C5.02053 30.3734 6.21417 29.8963 7.44738 29.9254C8.8618 29.9421 10.2742 29.8359 11.6699 29.6047C15.6778 29.0047 19.7566 30.09 22.9333 32.6064C22.9521 32.6231 22.9729 32.6356 22.9916 32.6502C23.0104 32.6648 23.0312 32.6814 23.0541 32.696C23.0771 32.7106 23.1083 32.7231 23.1312 32.7356C23.1562 32.7481 23.177 32.7585 23.2 32.7668C23.2229 32.7752 23.25 32.7814 23.277 32.7877C23.3041 32.796 23.3312 32.8022 23.3583 32.8085C23.3791 32.8127 23.402 32.8127 23.4228 32.8147L23.4249 32.8127C23.4562 32.8168 23.4895 32.8189 23.5228 32.8168C23.5395 32.8168 23.5582 32.8127 23.577 32.8106L23.5749 32.8127C23.6124 32.8085 23.6499 32.8043 23.6853 32.796C23.6999 32.7918 23.7124 32.7877 23.727 32.7835C23.7603 32.7752 23.7936 32.7648 23.8249 32.7523C29.595 30.2546 33.4133 31.5253 35.8424 36.7456C35.8465 36.756 35.8549 36.7623 35.859 36.7706C35.8882 36.8289 35.9236 36.8852 35.9653 36.9352L35.984 36.9602L35.9861 36.9581C36.0298 37.0039 36.0798 37.0456 36.1319 37.081C36.1486 37.0935 36.1673 37.1039 36.1861 37.1143C36.234 37.1414 36.2861 37.1643 36.3382 37.1831C36.3506 37.1872 36.3631 37.1935 36.3756 37.1977H36.3777C36.434 37.2122 36.4923 37.2227 36.5527 37.2268H36.5965C36.6131 37.2268 36.6298 37.2227 36.6465 37.2227V37.2206C36.686 37.2185 36.7256 37.2143 36.7652 37.2081C36.7819 37.2039 36.8006 37.1977 36.8194 37.1935L36.8173 37.1914C36.8568 37.1831 36.8943 37.1706 36.9298 37.1539C36.936 37.1518 36.9423 37.1497 36.9485 37.1477C36.9652 37.1393 36.9777 37.1289 36.9943 37.1206C37.0214 37.106 37.0485 37.0914 37.0714 37.0747C37.0943 37.0581 37.1131 37.0435 37.1318 37.0268C37.1506 37.0102 37.1735 36.9914 37.1922 36.9727L37.1901 36.9768C37.2089 36.9581 37.2256 36.9394 37.2422 36.9185C37.2589 36.8977 37.2756 36.8748 37.2901 36.8519C37.3047 36.831 37.3151 36.8102 37.3276 36.7894C37.3422 36.7644 37.3547 36.7373 37.3651 36.7102C37.3735 36.6894 37.3818 36.6665 37.388 36.6456C37.3943 36.6248 37.4047 36.5894 37.411 36.5602C37.4172 36.5311 37.4193 36.5102 37.4214 36.4852C37.4214 36.4706 37.4276 36.4561 37.4276 36.4394L38.0776 24.6198H38.0797C38.0859 24.4844 38.0609 24.349 38.0047 24.2261L37.461 23.047H37.4589C39.0171 21.8596 40.269 20.3202 41.1127 18.5537C41.669 19.4161 42.3293 20.3931 43.0126 21.4035C45.0061 24.3531 47.4871 28.0236 47.9975 29.8671C48.3016 30.9754 48.7162 32.4481 49.1245 33.898C49.7348 36.0707 50.4931 38.7642 50.5764 39.16V39.1621C50.5973 39.2996 50.6389 39.435 50.6993 39.562C50.9014 40.0557 51.5117 41.5614 50.8847 42.8905ZM32.9179 36.5055C33.1846 36.8805 33.0992 37.4012 32.7263 37.67C32.3513 37.9366 31.8305 37.8512 31.5639 37.4783C29.7516 34.9535 25.3645 36.5555 25.3208 36.5722L25.3187 36.5701C24.8875 36.7326 24.4084 36.5138 24.248 36.0826C24.0876 35.6514 24.3063 35.1702 24.7375 35.0098C24.9646 34.9244 30.3699 32.9579 32.9179 36.5055ZM38.9675 13.2933C38.9717 16.1097 37.6447 18.7637 35.3908 20.451C33.1368 22.1405 30.2184 22.6675 27.5164 21.8738C24.8146 21.0781 22.644 19.0553 21.6626 16.4162C20.6814 13.7769 21.0022 10.8274 22.5292 8.46075C24.0561 6.09432 26.6079 4.58615 29.4181 4.39033C32.2282 4.1966 34.9653 5.33813 36.8051 7.47333C37.105 7.82121 37.0655 8.34823 36.7176 8.6482C36.3697 8.94817 35.8427 8.91067 35.5427 8.56071C33.1242 5.76515 28.985 5.24648 25.9522 7.36083C22.9192 9.47518 21.9755 13.5394 23.7628 16.7743C25.5502 20.0094 29.4934 21.3738 32.8974 19.9323C36.3012 18.4908 38.0656 14.7099 36.9866 11.1748C36.922 10.9623 36.9428 10.7353 37.047 10.5394C37.1511 10.3436 37.3282 10.1978 37.5386 10.1332C37.9781 9.99783 38.4448 10.2457 38.5802 10.6853C38.8385 11.531 38.9696 12.4101 38.9675 13.2933ZM26.8481 13.2933C26.8481 14.587 27.6272 15.7535 28.8229 16.2493C30.0187 16.7451 31.3956 16.4701 32.3101 15.5556C33.2246 14.6412 33.4996 13.2642 33.0038 12.0684C32.508 10.8727 31.3415 10.0937 30.0478 10.0937C29.1979 10.0937 28.3855 10.4311 27.7855 11.0311C27.1835 11.631 26.8481 12.4434 26.8481 13.2933ZM31.5768 13.2933C31.5768 13.9121 31.204 14.4703 30.6311 14.7078C30.0583 14.9452 29.4 14.814 28.9625 14.3765C28.5251 13.937 28.3939 13.2787 28.6313 12.708C28.8688 12.1351 29.4271 11.7622 30.0457 11.7622C30.8894 11.7622 31.5748 12.4476 31.5768 13.2933Z" fill="url(#paint0_linear_195_1200)"/>
<path d="M38.9696 13.2913L38.9675 13.2933M38.9675 13.2933C38.9717 16.1097 37.6447 18.7637 35.3908 20.451C33.1368 22.1405 30.2184 22.6675 27.5164 21.8738C24.8146 21.0781 22.644 19.0553 21.6626 16.4162C20.6814 13.7769 21.0022 10.8275 22.5292 8.46075C24.0561 6.09432 26.6079 4.58615 29.4181 4.39033C32.2282 4.1966 34.9653 5.33813 36.8051 7.47333C37.105 7.82121 37.0655 8.34823 36.7176 8.6482C36.3697 8.94817 35.8427 8.91067 35.5427 8.56071C33.1242 5.76515 28.985 5.24648 25.9522 7.36083C22.9192 9.47518 21.9755 13.5394 23.7628 16.7743C25.5502 20.0094 29.4934 21.3738 32.8974 19.9323C36.3012 18.4908 38.0656 14.7099 36.9866 11.1748C36.922 10.9623 36.9428 10.7353 37.047 10.5394C37.1511 10.3436 37.3282 10.1978 37.5386 10.1332C37.9781 9.99783 38.4448 10.2457 38.5802 10.6853C38.8385 11.531 38.9696 12.4101 38.9675 13.2933ZM26.8481 13.2913V13.2933M26.8481 13.2933C26.8481 14.587 27.6272 15.7535 28.8229 16.2493C30.0187 16.7451 31.3956 16.4701 32.3101 15.5556C33.2246 14.6412 33.4996 13.2642 33.0038 12.0684C32.508 10.8727 31.3415 10.0937 30.0478 10.0937C29.1979 10.0937 28.3855 10.4311 27.7855 11.0311C27.1835 11.631 26.8481 12.4434 26.8481 13.2933ZM31.5768 13.2913V13.2933M31.5768 13.2933C31.5768 13.9121 31.204 14.4703 30.6311 14.7078C30.0583 14.9452 29.4 14.814 28.9625 14.3765C28.5251 13.937 28.3939 13.2787 28.6313 12.708C28.8688 12.1351 29.4271 11.7622 30.0458 11.7622C30.8894 11.7622 31.5748 12.4476 31.5768 13.2933ZM52.2424 38.9324L52.2153 38.8637C52.1466 38.5242 51.8695 37.5076 50.728 33.4456C50.3218 31.9978 49.9093 30.5271 49.6031 29.423C49.0219 27.3149 46.5638 23.678 44.3932 20.4698C43.4058 19.0095 42.4725 17.6263 41.8497 16.5827H41.8476C42.8767 12.908 42.1372 8.96261 39.8478 5.91065C37.5584 2.85676 33.9775 1.04238 30.1613 1.00073C26.3451 0.95907 22.7269 2.69433 20.3708 5.69611C18.0148 8.69789 17.1899 12.6266 18.1377 16.3223C19.0855 20.0198 21.6978 23.0656 25.2079 24.5652C28.718 26.0629 32.7261 25.8421 36.0506 23.9694L36.4026 24.7318L35.9173 33.5662C33.1092 29.7061 28.9889 28.8499 23.6332 31.0227C20.1418 28.3896 15.7321 27.2814 11.4093 27.9563C10.1115 28.1688 8.795 28.2709 7.47844 28.2584C5.79317 28.2188 4.16629 28.8708 2.97472 30.0644C1.79569 31.2289 1.14365 32.8246 1.16866 34.4806L1.23116 39.5801C1.26449 43.1652 2.97056 46.5314 5.84526 48.6752C5.85151 48.6794 5.85568 48.6856 5.86193 48.6898C5.86818 48.694 5.87234 48.694 5.87651 48.6981C7.85967 50.1897 10.2761 50.9958 12.7569 50.9917L16.0108 51H16.0087C16.2982 51 16.5649 50.8521 16.7169 50.6063L18.4147 47.8836C18.773 47.3087 19.4812 47.0608 20.1207 47.2858C32.6651 51.6166 41.4792 48.8293 47.3095 46.9837C47.6532 46.8775 47.9886 46.7712 48.3136 46.6671C50.3592 46.0296 51.7299 44.9985 52.3902 43.5986C53.3318 41.6113 52.5111 39.5949 52.2424 38.9324ZM19.4542 13.2934C19.4542 10.4853 20.5708 7.79207 22.556 5.80453C24.5433 3.81929 27.2367 2.70484 30.0448 2.70484C32.855 2.70484 35.5483 3.82142 37.5337 5.80869C39.5189 7.79393 40.6355 10.4874 40.6334 13.2975C40.6334 16.1056 39.5189 18.7989 37.5316 20.7843C35.5464 22.7695 32.8529 23.886 30.0449 23.886C27.2348 23.884 24.5436 22.7653 22.5582 20.7801C20.5729 18.7928 19.4563 16.1014 19.4542 13.2934ZM50.8847 42.8905C50.4306 43.8508 49.3994 44.5861 47.8183 45.0778C47.4913 45.1798 47.1538 45.2861 46.806 45.3986C41.1836 47.1775 32.6863 49.8627 20.6629 45.7131V45.711C19.2881 45.2298 17.7653 45.7673 16.9987 47.0047L15.5488 49.3357L12.7595 49.3273C10.9118 49.3294 9.09944 48.8066 7.53709 47.8213C8.48911 46.6339 10.1889 44.8007 11.5679 44.405C14.1573 43.6655 16.6612 39.3617 16.9381 38.8743V38.8722C17.1651 38.4723 17.0256 37.964 16.6256 37.7369C16.2236 37.5099 15.7153 37.6494 15.4882 38.0494C14.5695 39.6659 12.5697 42.3844 11.1095 42.801C9.14721 43.3614 7.15156 45.6195 6.20376 46.8152C4.12274 44.9758 2.92078 42.3386 2.89577 39.5599L2.83328 34.4604C2.81453 33.2543 3.28948 32.094 4.14771 31.2462C5.02053 30.3734 6.21417 29.8963 7.44738 29.9254C8.8618 29.9421 10.2742 29.8359 11.6699 29.6046C15.6778 29.0047 19.7566 30.09 22.9333 32.6064C22.9521 32.6231 22.9729 32.6356 22.9916 32.6502C23.0104 32.6648 23.0312 32.6814 23.0541 32.696C23.0771 32.7106 23.1083 32.7231 23.1312 32.7356C23.1562 32.7481 23.177 32.7585 23.2 32.7668C23.2229 32.7752 23.25 32.7814 23.277 32.7877C23.3041 32.796 23.3312 32.8022 23.3583 32.8085C23.3791 32.8127 23.402 32.8127 23.4228 32.8147L23.4249 32.8127C23.4562 32.8168 23.4895 32.8189 23.5228 32.8168C23.5395 32.8168 23.5582 32.8127 23.577 32.8106L23.5749 32.8127C23.6124 32.8085 23.6499 32.8043 23.6853 32.796C23.6999 32.7918 23.7124 32.7877 23.727 32.7835C23.7603 32.7752 23.7936 32.7648 23.8249 32.7523C29.595 30.2546 33.4133 31.5253 35.8424 36.7456C35.8465 36.756 35.8549 36.7623 35.859 36.7706C35.8882 36.8289 35.9236 36.8852 35.9653 36.9352L35.984 36.9602L35.9861 36.9581C36.0298 37.0039 36.0798 37.0456 36.1319 37.081C36.1486 37.0935 36.1673 37.1039 36.1861 37.1143C36.234 37.1414 36.2861 37.1643 36.3381 37.1831C36.3506 37.1872 36.3631 37.1935 36.3756 37.1977H36.3777C36.434 37.2122 36.4923 37.2227 36.5527 37.2268H36.5965C36.6131 37.2268 36.6298 37.2227 36.6465 37.2227V37.2206C36.686 37.2185 36.7256 37.2143 36.7652 37.2081C36.7819 37.2039 36.8006 37.1977 36.8194 37.1935L36.8173 37.1914C36.8568 37.1831 36.8943 37.1706 36.9298 37.1539C36.936 37.1518 36.9423 37.1497 36.9485 37.1477C36.9652 37.1393 36.9777 37.1289 36.9943 37.1206C37.0214 37.106 37.0485 37.0914 37.0714 37.0747C37.0943 37.0581 37.1131 37.0435 37.1318 37.0268C37.1506 37.0102 37.1735 36.9914 37.1922 36.9727L37.1901 36.9768C37.2089 36.9581 37.2256 36.9393 37.2422 36.9185C37.2589 36.8977 37.2756 36.8748 37.2901 36.8519C37.3047 36.831 37.3151 36.8102 37.3276 36.7894C37.3422 36.7644 37.3547 36.7373 37.3651 36.7102C37.3735 36.6894 37.3818 36.6665 37.388 36.6456C37.3943 36.6248 37.4047 36.5894 37.411 36.5602C37.4172 36.531 37.4193 36.5102 37.4214 36.4852C37.4214 36.4706 37.4276 36.4561 37.4276 36.4394L38.0776 24.6198H38.0797C38.0859 24.4844 38.0609 24.349 38.0047 24.2261L37.461 23.047H37.4589C39.0171 21.8596 40.269 20.3202 41.1127 18.5537C41.669 19.4161 42.3293 20.3931 43.0126 21.4035C45.0061 24.3531 47.4871 28.0236 47.9975 29.8672C48.3016 30.9754 48.7162 32.4481 49.1245 33.898C49.7348 36.0707 50.4931 38.7642 50.5764 39.16V39.1621C50.5973 39.2996 50.6389 39.435 50.6993 39.562C50.9014 40.0557 51.5117 41.5614 50.8847 42.8905ZM32.9179 36.5055C33.1846 36.8805 33.0992 37.4012 32.7263 37.67C32.3513 37.9366 31.8305 37.8512 31.5639 37.4783C29.7516 34.9535 25.3645 36.5555 25.3208 36.5722L25.3187 36.5701C24.8875 36.7326 24.4084 36.5138 24.248 36.0826C24.0876 35.6514 24.3063 35.1702 24.7375 35.0098C24.9646 34.9244 30.3699 32.9579 32.9179 36.5055Z" stroke="url(#paint1_linear_195_1200)"/>
</g>
<defs>
<linearGradient id="paint0_linear_195_1200" x1="26.9992" y1="1" x2="26.9992" y2="51" gradientUnits="userSpaceOnUse">
<stop stop-color="#D7FD44"/>
<stop offset="1" stop-color="#5C6B20"/>
</linearGradient>
<linearGradient id="paint1_linear_195_1200" x1="26.9992" y1="1" x2="26.9992" y2="51" gradientUnits="userSpaceOnUse">
<stop stop-color="#D7FD44"/>
<stop offset="1" stop-color="#5C6B20"/>
</linearGradient>
</defs>
</svg>
